#Comment line ignore any data following # character 
#Hierarchical Translation and Rotation (.htr) file 
[Header]	
#Header keywords are followed by a single value 
FileType HTR		#Single word string
DataType HTRS		#Translation followed by rotation and scale data
FileVersion 1		#integer
NumSegments 84		#integer
NumFrames 2		#integer
DataFrameRate 30		#integer, data frame rate in this file
EulerRotationOrder ZYX
CalibrationUnits mm
RotationUnits Degrees
GlobalAxisofGravity Y
BoneLengthAxis Y
ScaleFactor 1.00
[SegmentNames&Hierarchy]
#CHILD	PARENT
MASTER GLOBAL
root MASTER
chest root
L_mid_tent01 root
R_mid_tent01 root
spine01 root
Bip01_Neck chest
L_humerus chest
R_humerus chest
weapon_bone chest
Bip01_Head Bip01_Neck
eye_left_bone Bip01_Head
eye_right_bone Bip01_Head
L_forearm L_humerus
L_front_hand L_forearm
L_weapon_bone L_forearm
L_front_hand01_01 L_front_hand
L_front_hand02_01 L_front_hand
L_front_hand03_01 L_front_hand
L_front_hand01_02 L_front_hand01_01
L_front_hand02_02 L_front_hand02_01
L_front_hand03_02 L_front_hand03_01
R_forearm R_humerus
R_front_hand R_forearm
R_weapon_bone R_forearm
R_front_hand01_01 R_front_hand
R_front_hand02_01 R_front_hand
R_front_hand03_01 R_front_hand
R_front_hand01_02 R_front_hand01_01
R_front_hand02_02 R_front_hand02_01
R_front_hand03_02 R_front_hand03_01
null_rope01_connect L_mid_tent01
Rope1_Seg01 null_rope01_connect
Rope1_Seg02 Rope1_Seg01
Rope1_Seg03 Rope1_Seg02
Rope1_Seg04 Rope1_Seg03
Rope1_Seg05 Rope1_Seg04
Rope1_Seg06 Rope1_Seg05
Rope1_Seg07 Rope1_Seg06
Rope1_Seg09 Rope1_Seg07
L_mid_hand01 Rope1_Seg09
L_mid_hand02 Rope1_Seg09
L_mid_hand03 Rope1_Seg09
null_rope02_connect R_mid_tent01
Rope2_Seg01 null_rope02_connect
Rope2_Seg02 Rope2_Seg01
Rope2_Seg03 Rope2_Seg02
Rope2_Seg04 Rope2_Seg03
Rope2_Seg05 Rope2_Seg04
Rope2_Seg06 Rope2_Seg05
Rope2_Seg07 Rope2_Seg06
Rope2_Seg09 Rope2_Seg07
R_mid_hand01 Rope2_Seg09
R_mid_hand02 Rope2_Seg09
R_mid_hand03 Rope2_Seg09
spine02 spine01
spine03 spine02
pelvis spine03
null_rope03_connect pelvis
null_rope04_connect pelvis
Rope3_Seg01 null_rope03_connect
Rope3_Seg02 Rope3_Seg01
Rope3_Seg03 Rope3_Seg02
Rope3_Seg04 Rope3_Seg03
Rope3_Seg05 Rope3_Seg04
Rope3_Seg06 Rope3_Seg05
Rope3_Seg07 Rope3_Seg06
Rope3_Seg08 Rope3_Seg07
Rope3_Seg09 Rope3_Seg08
R_rear_hand01 Rope3_Seg09
R_rear_hand02 Rope3_Seg09
R_rear_hand03 Rope3_Seg09
Rope4_Seg01 null_rope04_connect
Rope4_Seg02 Rope4_Seg01
Rope4_Seg03 Rope4_Seg02
Rope4_Seg04 Rope4_Seg03
Rope4_Seg05 Rope4_Seg04
Rope4_Seg06 Rope4_Seg05
Rope4_Seg07 Rope4_Seg06
Rope4_Seg08 Rope4_Seg07
Rope4_Seg09 Rope4_Seg08
L_rear_hand01 Rope4_Seg09
L_rear_hand02 Rope4_Seg09
L_rear_hand03 Rope4_Seg09
[BasePosition]
#SegmentName Tx, Ty, Tz, Rx, Ry, Rz, BoneLength
MASTER 0.000000 0.000000 0.000000 -90.000000 0.000000 0.000000 10.000000 
root 0.000000 0.000000 0.000000 0.000000 0.000000 0.000000 10.000000 
chest 0.000000 0.000000 0.000000 0.000000 0.000000 0.000000 10.000000 
L_mid_tent01 0.000000 0.000000 0.000000 0.000000 0.000000 0.000000 10.000000 
R_mid_tent01 0.000000 0.000000 0.000000 0.000000 0.000000 0.000000 10.000000 
spine01 0.000000 0.000000 0.000000 0.000000 0.000000 0.000000 10.000000 
Bip01_Neck 0.000000 0.000000 0.000000 0.000000 0.000000 0.000000 10.000000 
L_humerus 0.000000 0.000000 0.000000 0.000000 0.000000 0.000000 10.000000 
R_humerus 0.000000 0.000000 0.000000 0.000000 0.000000 0.000000 10.000000 
weapon_bone 0.000000 0.000000 0.000000 0.000000 0.000000 0.000000 10.000000 
Bip01_Head 0.000000 0.000000 0.000000 0.000000 0.000000 0.000000 10.000000 
eye_left_bone 0.000000 0.000000 0.000000 0.000000 0.000000 0.000000 10.000000 
eye_right_bone 0.000000 0.000000 0.000000 0.000000 0.000000 0.000000 10.000000 
L_forearm 0.000000 0.000000 0.000000 0.000000 0.000000 0.000000 10.000000 
L_front_hand 0.000000 0.000000 0.000000 0.000000 0.000000 0.000000 10.000000 
L_weapon_bone 0.000000 0.000000 0.000000 0.000000 0.000000 0.000000 10.000000 
L_front_hand01_01 0.000000 0.000000 0.000000 0.000000 0.000000 0.000000 10.000000 
L_front_hand02_01 0.000000 0.000000 0.000000 0.000000 0.000000 0.000000 10.000000 
L_front_hand03_01 0.000000 0.000000 0.000000 0.000000 0.000000 0.000000 10.000000 
L_front_hand01_02 0.000000 0.000000 0.000000 0.000000 0.000000 0.000000 10.000000 
L_front_hand02_02 0.000000 0.000000 0.000000 0.000000 0.000000 0.000000 10.000000 
L_front_hand03_02 0.000000 0.000000 0.000000 0.000000 0.000000 0.000000 10.000000 
R_forearm 0.000000 0.000000 0.000000 0.000000 0.000000 0.000000 10.000000 
R_front_hand 0.000000 0.000000 0.000000 0.000000 0.000000 0.000000 10.000000 
R_weapon_bone 0.000000 0.000000 0.000000 0.000000 0.000000 0.000000 10.000000 
R_front_hand01_01 0.000000 0.000000 0.000000 0.000000 0.000000 0.000000 10.000000 
R_front_hand02_01 0.000000 0.000000 0.000000 0.000000 0.000000 0.000000 10.000000 
R_front_hand03_01 0.000000 0.000000 0.000000 0.000000 0.000000 0.000000 10.000000 
R_front_hand01_02 0.000000 0.000000 0.000000 0.000000 0.000000 0.000000 10.000000 
R_front_hand02_02 0.000000 0.000000 0.000000 0.000000 0.000000 0.000000 10.000000 
R_front_hand03_02 0.000000 0.000000 0.000000 0.000000 0.000000 0.000000 10.000000 
null_rope01_connect 0.000000 0.000000 0.000000 0.000000 0.000000 0.000000 10.000000 
Rope1_Seg01 0.000000 0.000000 0.000000 0.000000 0.000000 0.000000 10.000000 
Rope1_Seg02 0.000000 0.000000 0.000000 0.000000 0.000000 0.000000 10.000000 
Rope1_Seg03 0.000000 0.000000 0.000000 0.000000 0.000000 0.000000 10.000000 
Rope1_Seg04 0.000000 0.000000 0.000000 0.000000 0.000000 0.000000 10.000000 
Rope1_Seg05 0.000000 0.000000 0.000000 0.000000 0.000000 0.000000 10.000000 
Rope1_Seg06 0.000000 0.000000 0.000000 0.000000 0.000000 0.000000 10.000000 
Rope1_Seg07 0.000000 0.000000 0.000000 0.000000 0.000000 0.000000 10.000000 
Rope1_Seg09 0.000000 0.000000 0.000000 0.000000 0.000000 0.000000 10.000000 
L_mid_hand01 0.000000 0.000000 0.000000 0.000000 0.000000 0.000000 10.000000 
L_mid_hand02 0.000000 0.000000 0.000000 0.000000 0.000000 0.000000 10.000000 
L_mid_hand03 0.000000 0.000000 0.000000 0.000000 0.000000 0.000000 10.000000 
null_rope02_connect 0.000000 0.000000 0.000000 0.000000 0.000000 0.000000 10.000000 
Rope2_Seg01 0.000000 0.000000 0.000000 0.000000 0.000000 0.000000 10.000000 
Rope2_Seg02 0.000000 0.000000 0.000000 0.000000 0.000000 0.000000 10.000000 
Rope2_Seg03 0.000000 0.000000 0.000000 0.000000 0.000000 0.000000 10.000000 
Rope2_Seg04 0.000000 0.000000 0.000000 0.000000 0.000000 0.000000 10.000000 
Rope2_Seg05 0.000000 0.000000 0.000000 0.000000 0.000000 0.000000 10.000000 
Rope2_Seg06 0.000000 0.000000 0.000000 0.000000 0.000000 0.000000 10.000000 
Rope2_Seg07 0.000000 0.000000 0.000000 0.000000 0.000000 0.000000 10.000000 
Rope2_Seg09 0.000000 0.000000 0.000000 0.000000 0.000000 0.000000 10.000000 
R_mid_hand01 0.000000 0.000000 0.000000 0.000000 0.000000 0.000000 10.000000 
R_mid_hand02 0.000000 0.000000 0.000000 0.000000 0.000000 0.000000 10.000000 
R_mid_hand03 0.000000 0.000000 0.000000 0.000000 0.000000 0.000000 10.000000 
spine02 0.000000 0.000000 0.000000 0.000000 0.000000 0.000000 10.000000 
spine03 0.000000 0.000000 0.000000 0.000000 0.000000 0.000000 10.000000 
pelvis 0.000000 0.000000 0.000000 0.000000 0.000000 0.000000 10.000000 
null_rope03_connect 0.000000 0.000000 0.000000 0.000000 0.000000 0.000000 10.000000 
null_rope04_connect 0.000000 0.000000 0.000000 0.000000 0.000000 0.000000 10.000000 
Rope3_Seg01 0.000000 0.000000 0.000000 0.000000 0.000000 0.000000 10.000000 
Rope3_Seg02 0.000000 0.000000 0.000000 0.000000 0.000000 0.000000 10.000000 
Rope3_Seg03 0.000000 0.000000 0.000000 0.000000 0.000000 0.000000 10.000000 
Rope3_Seg04 0.000000 0.000000 0.000000 0.000000 0.000000 0.000000 10.000000 
Rope3_Seg05 0.000000 0.000000 0.000000 0.000000 0.000000 0.000000 10.000000 
Rope3_Seg06 0.000000 0.000000 0.000000 0.000000 0.000000 0.000000 10.000000 
Rope3_Seg07 0.000000 0.000000 0.000000 0.000000 0.000000 0.000000 10.000000 
Rope3_Seg08 0.000000 0.000000 0.000000 0.000000 0.000000 0.000000 10.000000 
Rope3_Seg09 0.000000 0.000000 0.000000 0.000000 0.000000 0.000000 10.000000 
R_rear_hand01 0.000000 0.000000 0.000000 0.000000 0.000000 0.000000 10.000000 
R_rear_hand02 0.000000 0.000000 0.000000 0.000000 0.000000 0.000000 10.000000 
R_rear_hand03 0.000000 0.000000 0.000000 0.000000 0.000000 0.000000 10.000000 
Rope4_Seg01 0.000000 0.000000 0.000000 0.000000 0.000000 0.000000 10.000000 
Rope4_Seg02 0.000000 0.000000 0.000000 0.000000 0.000000 0.000000 10.000000 
Rope4_Seg03 0.000000 0.000000 0.000000 0.000000 0.000000 0.000000 10.000000 
Rope4_Seg04 0.000000 0.000000 0.000000 0.000000 0.000000 0.000000 10.000000 
Rope4_Seg05 0.000000 0.000000 0.000000 0.000000 0.000000 0.000000 10.000000 
Rope4_Seg06 0.000000 0.000000 0.000000 0.000000 0.000000 0.000000 10.000000 
Rope4_Seg07 0.000000 0.000000 0.000000 0.000000 0.000000 0.000000 10.000000 
Rope4_Seg08 0.000000 0.000000 0.000000 0.000000 0.000000 0.000000 10.000000 
Rope4_Seg09 0.000000 0.000000 0.000000 0.000000 0.000000 0.000000 10.000000 
L_rear_hand01 0.000000 0.000000 0.000000 0.000000 0.000000 0.000000 10.000000 
L_rear_hand02 0.000000 0.000000 0.000000 0.000000 0.000000 0.000000 10.000000 
L_rear_hand03 0.000000 0.000000 0.000000 0.000000 0.000000 0.000000 10.000000 
#Beginning of Data. Separated by tabs
#Fr	Tx	Ty	Tz	Rx	Ry	Rz	SF
[MASTER]
25 -119.512978 3867.828613 305.659363 0.001660 0.001660 0.001660 3881.727539
26 -117.729660 3936.716797 162.395096 0.001660 0.001660 0.001660 3941.823242
[root]
25 2.696667 444.668884 1104.892578 -96.235016 -37.029194 -86.953636 1191.018677
26 2.696667 444.668884 1104.892578 -96.235016 -37.029194 -86.953636 1191.018677
[chest]
25 -84.512650 -34.090519 0.000000 -10.602808 -25.904949 148.992615 91.129311
26 -84.512650 -34.090519 0.000000 -11.289240 -26.819073 149.740311 91.129311
[L_mid_tent01]
25 27.298826 22.179029 -249.918686 -0.274865 19.358498 79.443230 252.381638
26 27.298815 22.179026 -249.918686 -0.242067 20.114885 78.878372 252.381622
[R_mid_tent01]
25 23.228794 24.509907 226.238495 126.674492 -42.576817 67.659470 228.744751
26 23.228794 24.509907 226.238495 126.375443 -43.309109 67.469505 228.744751
[spine01]
25 -0.361383 -0.195265 0.000000 -0.000001 -0.000007 22.052340 0.410763
26 -0.361383 -0.195265 0.000000 -0.000001 -0.000007 22.052340 0.410763
[Bip01_Neck]
25 165.484543 71.581718 0.000119 176.643677 -1.657967 43.431911 180.302734
26 165.484543 71.581718 0.000119 176.643677 -1.657967 43.431911 180.302734
[L_humerus]
25 -13.983130 -135.272980 -120.471481 172.145676 3.132336 -90.043724 181.680161
26 -13.983130 -135.272980 -120.471481 172.179993 1.425485 -89.778122 181.680161
[R_humerus]
25 -13.983309 -135.273102 125.287651 -176.994690 2.073917 -85.464661 184.909012
26 -13.983309 -135.273102 125.287651 -177.014343 2.678886 -85.399712 184.909012
[weapon_bone]
25 235.964890 -300.705902 0.000000 0.000000 -89.951546 -128.212341 382.234833
26 235.964890 -300.705902 0.000000 0.000000 -89.951546 -128.212341 382.234833
[Bip01_Head]
25 213.398926 185.808701 10.088282 21.288977 9.120854 -43.337307 283.135559
26 213.408051 185.790085 10.426025 37.609653 15.448285 -42.769608 283.142487
[eye_left_bone]
25 -24.626970 125.451866 -64.772606 0.000000 -90.000000 -99.840431 143.318359
26 -24.626970 125.451866 -64.772606 0.000000 -90.000000 -99.840431 143.318359
[eye_right_bone]
25 -24.626970 125.451866 64.327362 0.000000 -89.965736 80.156380 143.117676
26 -24.626970 125.451866 64.327362 0.000000 -89.965736 80.156380 143.117676
[L_forearm]
25 322.776093 0.000000 -0.000119 0.000368 -0.002318 -108.020287 322.776093
26 322.776093 0.000000 -0.000119 0.000359 -0.002320 -107.585716 322.776093
[L_front_hand]
25 241.149185 -0.042021 -3.300071 162.983582 -1.835768 -27.421452 241.171753
26 241.149185 -0.042021 -3.300071 135.958359 -1.835206 -27.421661 241.171753
[L_weapon_bone]
25 156.183838 0.000000 0.000000 0.000014 0.000007 0.000001 156.183838
26 156.183838 0.000000 0.000000 0.000014 0.000007 0.000001 156.183838
[L_front_hand01_01]
25 86.095154 20.947098 -0.655860 0.094673 -0.594282 28.708982 88.609184
26 86.095154 20.947098 -0.655860 0.405585 -0.442306 -4.620490 88.609184
[L_front_hand02_01]
25 86.935165 -11.437475 24.513514 120.181007 -25.839642 -14.570363 91.046425
26 86.935165 -11.437475 24.513514 116.959450 3.630817 1.495453 91.046425
[L_front_hand03_01]
25 86.637497 -14.123976 -20.424902 -121.401955 24.440060 -16.844923 90.126129
26 86.637497 -14.123976 -20.424902 -118.419884 -4.660555 -0.155069 90.126129
[L_front_hand01_02]
25 71.020905 -0.000179 0.000030 0.000710 0.002237 -54.804646 71.020905
26 71.020905 -0.000179 0.000030 0.001534 0.001777 -8.378850 71.020905
[L_front_hand02_02]
25 71.020927 -0.000119 0.000060 0.000710 0.002237 -54.804646 71.020927
26 71.020927 -0.000119 0.000060 0.001534 0.001777 -8.378850 71.020927
[L_front_hand03_02]
25 71.020905 -0.000060 0.000060 0.000710 0.002237 -54.804646 71.020905
26 71.020905 -0.000060 0.000060 0.001534 0.001777 -8.378850 71.020905
[R_forearm]
25 322.776428 -0.000060 0.000030 0.206643 0.060442 -107.057442 322.776428
26 322.776428 -0.000060 0.000030 0.203915 0.055699 -106.626328 322.776428
[R_front_hand]
25 238.847015 -0.006795 2.210259 173.263367 -10.645264 -26.314512 238.857239
26 238.847015 -0.006795 2.210259 -148.459183 -10.645369 -26.313662 238.857239
[R_weapon_bone]
25 155.664093 0.002503 -0.000030 0.003487 0.001180 -90.988930 155.664078
26 155.664093 0.002503 -0.000030 0.003487 0.001180 -90.988930 155.664078
[R_front_hand01_01]
25 87.624611 14.231146 22.918642 -120.948990 -28.372290 16.362129 91.683487
26 87.624611 14.231146 22.918642 -116.960213 3.496675 -1.324139 91.683487
[R_front_hand02_01]
25 89.356956 14.367283 -19.491137 122.249802 27.199530 18.998022 92.579636
26 89.356956 14.367283 -19.491137 118.419647 -4.257089 0.609827 92.579636
[R_front_hand03_01]
25 87.286232 -22.307278 -0.143439 -0.176859 -0.419138 -31.887190 90.091743
26 87.286232 -22.307278 -0.143439 -0.387970 -0.231462 4.232001 90.091743
[R_front_hand01_02]
25 71.020905 0.000060 0.000119 0.002241 0.000698 55.394104 71.020905
26 71.020905 0.000060 0.000119 0.001777 0.001534 8.377220 71.020905
[R_front_hand02_02]
25 71.020844 -0.000030 -0.000119 0.002241 0.000698 55.394104 71.020836
26 71.020844 -0.000030 -0.000119 0.001777 0.001534 8.377220 71.020836
[R_front_hand03_02]
25 71.020905 0.000000 0.000030 0.002241 0.000698 55.394104 71.020905
26 71.020905 0.000000 0.000030 0.001777 0.001534 8.377220 71.020905
[null_rope01_connect]
25 328.732483 0.000000 -0.000238 -140.476654 -66.514526 -171.313721 328.732483
26 328.732483 0.000000 -0.000238 -139.633896 -65.796165 -171.554977 328.732483
[Rope1_Seg01]
25 -0.000001 -0.000642 0.000078 -20.364117 -12.246128 175.461685 0.000647
26 -0.000002 -0.000667 0.000081 -19.954964 -11.417051 175.278183 0.000672
[Rope1_Seg02]
25 139.999863 -0.000179 0.000000 15.001517 11.496756 19.414804 139.999863
26 139.999863 -0.000179 0.000000 15.237189 11.780619 19.943773 139.999863
[Rope1_Seg03]
25 139.999924 0.000060 -0.000060 10.587136 16.967867 7.719310 139.999924
26 139.999924 0.000060 -0.000060 9.909188 16.474867 7.084567 139.999924
[Rope1_Seg04]
25 139.999924 -0.000060 -0.000119 15.575172 15.983000 20.661289 139.999924
26 139.999924 -0.000060 -0.000119 16.285887 16.049576 21.961382 139.999924
[Rope1_Seg05]
25 139.999832 0.000119 -0.000060 36.379314 28.147154 42.946434 139.999832
26 139.999832 0.000119 -0.000060 36.015903 28.428114 42.169765 139.999832
[Rope1_Seg06]
25 139.999954 0.000119 -0.000060 6.467616 13.918388 6.543099 139.999954
26 139.999954 0.000119 -0.000060 6.057587 13.355469 6.088786 139.999954
[Rope1_Seg07]
25 139.999985 0.000060 0.000000 1.824027 5.742476 1.871181 139.999985
26 139.999985 0.000060 0.000000 1.775440 5.634909 1.827354 139.999985
[Rope1_Seg09]
25 121.602913 0.000119 -0.000089 -89.793175 -1.359789 0.847147 121.602913
26 121.602913 0.000119 -0.000089 -89.793175 -1.359789 0.847147 121.602913
[L_mid_hand01]
25 103.859421 1.038730 8.195221 130.544373 -67.584518 -38.866947 104.187431
26 103.859421 1.038730 8.195221 130.544388 -67.584534 -38.866955 104.187431
[L_mid_hand02]
25 105.572853 -4.139662 -10.864139 -168.923172 43.409309 -73.498886 106.211075
26 105.572853 -4.139662 -10.864139 -168.923172 43.409302 -73.498894 106.211075
[L_mid_hand03]
25 104.641464 17.579376 -3.913581 -6.012629 17.808178 74.893669 106.179977
26 104.641464 17.579376 -3.913581 -6.012627 17.808176 74.893669 106.179977
[null_rope02_connect]
25 328.732849 0.000179 -0.000119 -55.119267 23.919062 46.121861 328.732849
26 328.732849 0.000179 -0.000119 -55.047367 23.384966 45.481483 328.732849
[Rope2_Seg01]
25 0.000058 0.000075 0.000000 96.802788 -15.813020 44.344555 0.000094
26 0.000058 0.000071 0.000000 93.511284 2.230897 26.961615 0.000092
[Rope2_Seg02]
25 139.999741 -0.000060 -0.000119 -1.106050 -4.873466 -9.312963 139.999756
26 139.999741 -0.000060 -0.000119 -3.931240 -7.591991 -10.794308 139.999756
[Rope2_Seg03]
25 140.000107 0.000030 0.000000 -1.586947 -7.973463 -17.223005 140.000107
26 140.000107 0.000030 0.000000 -6.702190 -10.475941 -20.046124 140.000107
[Rope2_Seg04]
25 139.999802 0.000000 -0.000060 -1.330011 -9.398036 -24.885328 139.999802
26 139.999802 0.000000 -0.000060 -7.223113 -10.240217 -25.457005 139.999802
[Rope2_Seg05]
25 139.999985 -0.000060 0.000119 0.326226 -15.342449 -32.497551 139.999985
26 139.999985 -0.000060 0.000119 -5.902924 -11.807572 -23.838116 139.999985
[Rope2_Seg06]
25 139.999893 -0.000030 -0.000119 -0.869254 -9.577728 -22.347883 139.999893
26 139.999893 -0.000030 -0.000119 -3.831992 -4.552585 -15.024698 139.999893
[Rope2_Seg07]
25 139.999893 0.000060 -0.000060 -0.747057 -3.451167 -9.571385 139.999893
26 139.999893 0.000060 -0.000060 -1.863233 -1.677280 -8.090717 139.999893
[Rope2_Seg09]
25 121.338966 0.000089 -0.000060 33.793236 -1.359788 -0.847141 121.338966
26 121.338966 0.000089 -0.000060 33.793236 -1.359788 -0.847141 121.338966
[R_mid_hand01]
25 104.680779 11.144459 -10.335981 -18.585432 44.487873 67.094742 105.778534
26 104.680779 11.144459 -10.335981 -16.857145 45.048359 69.553452 105.778534
[R_mid_hand02]
25 104.070427 2.443552 8.231699 52.755077 -65.811348 35.278687 104.424065
26 104.070427 2.443552 8.231699 50.118160 -67.241356 38.150024 104.424065
[R_mid_hand03]
25 106.028137 -11.221827 -5.996406 -176.406250 15.411082 -73.996964 106.788818
26 106.028137 -11.221827 -5.996406 -176.912491 15.518663 -75.892738 106.788818
[spine02]
25 129.756927 0.001550 0.000119 0.508480 -4.027761 -15.082463 129.756927
26 129.756927 0.001550 0.000119 0.501922 -4.028601 -14.989050 129.756927
[spine03]
25 78.613960 0.081635 -4.899014 1.985590 3.786799 17.821524 78.766495
26 78.613953 0.081635 -4.899014 1.981319 3.788134 17.766291 78.766495
[pelvis]
25 169.435242 0.051022 0.000000 -0.069636 -0.178010 16.819777 169.435257
26 169.435242 0.051022 0.000000 -0.069437 -0.178088 16.691469 169.435257
[null_rope03_connect]
25 -1.257226 -2.466202 137.391083 -178.963440 -86.137405 -95.505447 137.418976
26 -1.257226 -2.466202 137.391083 -178.899551 -86.130821 -95.478668 137.418976
[null_rope04_connect]
25 -1.259640 -2.480268 -137.844437 -178.963440 -86.137405 -95.505447 137.872513
26 -1.259640 -2.480268 -137.844437 -178.899551 -86.130821 -95.478668 137.872513
[Rope3_Seg01]
25 0.000037 -0.000330 0.000000 -111.170860 -59.620754 70.073288 0.000332
26 0.000036 -0.000343 0.000000 -108.464539 -59.213047 66.950462 0.000344
[Rope3_Seg02]
25 139.999924 -0.000119 0.000060 1.078470 15.264298 -0.901741 139.999924
26 139.999924 -0.000119 0.000060 1.872160 18.972826 -1.681491 139.999924
[Rope3_Seg03]
25 139.999924 -0.000119 0.000119 18.966032 65.979439 -9.802484 139.999924
26 139.999924 -0.000119 0.000119 15.770705 67.138626 -17.717686 139.999924
[Rope3_Seg04]
25 139.999924 0.000119 0.000000 14.417724 33.333469 -22.022745 139.999924
26 139.999924 0.000119 0.000000 10.934589 25.733841 -19.584433 139.999924
[Rope3_Seg05]
25 139.999924 -0.000238 0.000060 3.946061 6.619426 -8.865546 139.999924
26 139.999924 -0.000238 0.000060 3.885955 7.865592 -8.429689 139.999924
[Rope3_Seg06]
25 139.999893 -0.000119 -0.000060 3.500565 6.813348 -11.109664 139.999893
26 139.999893 -0.000119 -0.000060 3.779791 9.053664 -10.995103 139.999893
[Rope3_Seg07]
25 139.999771 0.000060 -0.000119 2.152210 5.188752 -9.647455 139.999771
26 139.999771 0.000060 -0.000119 2.375118 6.367026 -9.498974 139.999771
[Rope3_Seg08]
25 139.999985 -0.000060 0.000000 1.199950 3.060309 -6.332329 139.999985
26 139.999985 -0.000060 0.000000 1.378654 3.747711 -6.226355 139.999985
[Rope3_Seg09]
25 90.185997 -0.000179 -0.000060 89.793228 -1.359877 -0.847183 90.185997
26 90.185997 -0.000179 -0.000060 89.793228 -1.359877 -0.847183 90.185997
[R_rear_hand01]
25 103.366196 -6.073594 -10.757982 -176.652313 24.449371 -71.361534 104.101845
26 103.366196 -6.073594 -10.757982 -177.431534 24.540588 -73.234825 104.101845
[R_rear_hand02]
25 100.509819 12.039542 -7.992327 -14.552657 36.319756 69.354675 101.543350
26 100.509819 12.039542 -7.992327 -13.326716 36.728546 71.413704 101.543350
[R_rear_hand03]
25 101.539970 5.215704 5.435467 73.490242 -69.598801 19.389946 101.819031
26 101.539970 5.215704 5.435467 72.062202 -71.230415 20.902843 101.819031
[Rope4_Seg01]
25 -0.000014 -0.000037 -0.000153 -16.014452 -60.470570 158.773788 0.000158
26 -0.000014 -0.000036 -0.000153 -17.479378 -53.442394 160.528305 0.000157
[Rope4_Seg02]
25 139.999985 0.000060 0.000119 -2.404169 7.328740 13.656316 139.999985
26 139.999985 0.000060 0.000119 -4.902557 8.975834 16.641058 139.999985
[Rope4_Seg03]
25 139.999924 0.000000 -0.000238 -7.622303 8.399940 18.302589 139.999924
26 139.999924 0.000000 -0.000238 -10.193616 9.489868 16.976913 139.999924
[Rope4_Seg04]
25 139.999985 0.000000 0.000119 -13.857050 4.848378 17.003632 139.999985
26 139.999985 0.000000 0.000119 -18.634899 2.432595 15.524578 139.999985
[Rope4_Seg05]
25 139.999802 -0.000060 -0.000119 -20.697929 0.762211 16.816977 139.999802
26 139.999802 -0.000060 -0.000119 -30.799358 -13.558827 20.760637 139.999802
[Rope4_Seg06]
25 139.999924 0.000000 0.000060 -26.373487 -5.692324 17.896704 139.999924
26 139.999924 0.000000 0.000060 -12.876481 -17.107327 9.409627 139.999924
[Rope4_Seg07]
25 139.999802 0.000000 0.000000 -15.439054 -9.657126 10.277879 139.999802
26 139.999802 0.000000 0.000000 -4.042667 -10.338981 3.563008 139.999802
[Rope4_Seg08]
25 139.999924 0.000000 0.000119 -7.467193 -6.397217 3.984213 139.999924
26 139.999924 0.000000 0.000119 -2.997863 -5.719519 1.548385 139.999924
[Rope4_Seg09]
25 90.185791 0.000060 0.000060 -135.617828 2.228885 0.850567 90.185791
26 90.185791 0.000060 0.000060 -135.617828 2.228885 0.850567 90.185791
[L_rear_hand01]
25 101.696655 -8.392275 -7.654577 -12.874829 -36.868488 107.832764 102.329041
26 101.696655 -8.392275 -7.654577 -12.874833 -36.868488 107.832779 102.329041
[L_rear_hand02]
25 102.726799 -1.568258 5.773216 71.484581 71.816628 158.486160 102.900848
26 102.726799 -1.568258 5.773216 71.484581 71.816628 158.486160 102.900848
[L_rear_hand03]
25 104.552910 9.721220 -10.420293 -177.714203 -24.565960 -106.089035 105.519653
26 104.552910 9.721220 -10.420293 -177.714203 -24.565960 -106.089035 105.519653
